<svg width="36" height="36" viewBox="0 0 36 36" fill="none" xmlns="http://www.w3.org/2000/svg">
<g clip-path="url(#clip0_2220_3950)">
<path d="M33 3.37502H28.125V1.12502C28.1252 0.826649 28.0069 0.540422 27.796 0.329303C27.5852 0.118184 27.2991 -0.000533242 27.0007 -0.000732155C26.7024 -0.000931067 26.4162 0.117405 26.205 0.328242C25.9939 0.53908 25.8752 0.825149 25.875 1.12352V3.37502H19.125V1.12502C19.1251 0.977281 19.0961 0.830971 19.0397 0.694442C18.9832 0.557913 18.9004 0.433839 18.796 0.329303C18.6916 0.224768 18.5677 0.141818 18.4312 0.0851904C18.2948 0.0285628 18.1485 -0.00063368 18.0007 -0.000732172C17.7024 -0.000931084 17.4162 0.117405 17.205 0.328242C16.9939 0.53908 16.8752 0.825149 16.875 1.12352V3.37502H10.125V1.12502C10.1251 0.977281 10.0961 0.830971 10.0397 0.694442C9.98321 0.557913 9.90042 0.433839 9.79603 0.329303C9.69163 0.224768 9.56767 0.141818 9.43121 0.0851904C9.29476 0.0285628 9.14849 -0.00063368 9.00075 -0.000732172C8.70238 -0.000931084 8.41615 0.117405 8.20504 0.328242C7.99392 0.53908 7.8752 0.825149 7.875 1.12352V3.37502H3C2.20461 3.37502 1.44178 3.69088 0.87921 4.25317C0.316644 4.81545 0.000397695 5.57813 0 6.37352V32.9985C0 33.7942 0.316071 34.5572 0.87868 35.1198C1.44129 35.6824 2.20435 35.9985 3 35.9985H33C33.7957 35.9985 34.5587 35.6824 35.1213 35.1198C35.6839 34.5572 36 33.7942 36 32.9985V6.37352C35.9996 5.57813 35.6834 4.81545 35.1208 4.25317C34.5582 3.69088 33.7954 3.37502 33 3.37502ZM33.75 33C33.75 33.1987 33.6712 33.3892 33.5309 33.5298C33.3905 33.6704 33.2002 33.7496 33.0015 33.75H3C2.80109 33.75 2.61032 33.671 2.46967 33.5303C2.32902 33.3897 2.25 33.1989 2.25 33V6.37502C2.2504 6.17637 2.32959 5.98599 2.4702 5.84566C2.61081 5.70533 2.80135 5.62652 3 5.62652H7.875V7.87652C7.8748 8.17489 7.99314 8.46111 8.20397 8.67223C8.41481 8.88335 8.70088 9.00207 8.99925 9.00227C9.29762 9.00247 9.58385 8.88413 9.79496 8.67329C10.0061 8.46246 10.1248 8.17639 10.125 7.87802V5.62652H16.875V7.87652C16.8748 8.17489 16.9931 8.46111 17.204 8.67223C17.4148 8.88335 17.7009 9.00207 17.9993 9.00227C18.2976 9.00247 18.5838 8.88413 18.795 8.67329C19.0061 8.46246 19.1248 8.17639 19.125 7.87802V5.62652H25.875V7.87652C25.8748 8.17489 25.9931 8.46111 26.204 8.67223C26.4148 8.88335 26.7009 9.00207 26.9993 9.00227C27.2976 9.00247 27.5838 8.88413 27.795 8.67329C28.0061 8.46246 28.1248 8.17639 28.125 7.87802V5.62652H33C33.1984 5.62691 33.3885 5.7059 33.5288 5.84619C33.6691 5.98647 33.7481 6.17663 33.7485 6.37502L33.75 33Z" fill="black"/>
<path d="M7.875 13.5H12.375V16.875H7.875V13.5ZM7.875 19.125H12.375V22.5H7.875V19.125ZM7.875 24.75H12.375V28.125H7.875V24.75ZM15.75 24.75H20.25V28.125H15.75V24.75ZM15.75 19.125H20.25V22.5H15.75V19.125ZM15.75 13.5H20.25V16.875H15.75V13.5ZM23.625 24.75H28.125V28.125H23.625V24.75ZM23.625 19.125H28.125V22.5H23.625V19.125ZM23.625 13.5H28.125V16.875H23.625V13.5Z" fill="black"/>
</g>
<defs>
<clipPath id="clip0_2220_3950">
<rect width="36" height="36" fill="white"/>
</clipPath>
</defs>
</svg>
