<svg width="46" height="46" viewBox="0 0 46 46" fill="none" xmlns="http://www.w3.org/2000/svg">
<path d="M23.0001 22.9999C28.2928 22.9999 32.5834 18.7093 32.5834 13.4166C32.5834 8.12386 28.2928 3.83325 23.0001 3.83325C17.7074 3.83325 13.4167 8.12386 13.4167 13.4166C13.4167 18.7093 17.7074 22.9999 23.0001 22.9999Z" stroke="black" stroke-width="3"/>
<path d="M32.5834 26.8333H33.258C34.6593 26.8336 36.0121 27.3457 37.0625 28.2732C38.1128 29.2007 38.7883 30.4798 38.962 31.8703L39.7114 37.8579C39.7789 38.3973 39.7308 38.9449 39.5704 39.4643C39.41 39.9837 39.141 40.463 38.7811 40.8705C38.4213 41.278 37.979 41.6043 37.4834 41.8278C36.9879 42.0512 36.4505 42.1667 35.9069 42.1666H10.0932C9.5496 42.1667 9.01219 42.0512 8.51664 41.8278C8.02109 41.6043 7.57873 41.278 7.21892 40.8705C6.85911 40.463 6.59009 39.9837 6.42969 39.4643C6.2693 38.9449 6.22121 38.3973 6.28862 37.8579L7.03612 31.8703C7.20995 30.4792 7.886 29.1995 8.93713 28.2719C9.98826 27.3443 11.3421 26.8327 12.744 26.8333H13.4167" stroke="black" stroke-width="3" stroke-linecap="round" stroke-linejoin="round"/>
</svg>
