<svg width="36" height="46" viewBox="0 0 36 46" fill="none" xmlns="http://www.w3.org/2000/svg">
<path d="M18 23C19.2375 23 20.2973 22.559 21.1793 21.677C22.0597 20.7965 22.5 19.7375 22.5 18.5C22.5 17.2625 22.0597 16.2028 21.1793 15.3207C20.2973 14.4402 19.2375 14 18 14C16.7625 14 15.7035 14.4402 14.823 15.3207C13.941 16.2028 13.5 17.2625 13.5 18.5C13.5 19.7375 13.941 20.7965 14.823 21.677C15.7035 22.559 16.7625 23 18 23ZM18 39.5375C22.575 35.3375 25.9688 31.5215 28.1812 28.0895C30.3937 24.659 31.5 21.6125 31.5 18.95C31.5 14.8625 30.1965 11.5153 27.5895 8.90825C24.984 6.30275 21.7875 5 18 5C14.2125 5 11.0153 6.30275 8.40825 8.90825C5.80275 11.5153 4.5 14.8625 4.5 18.95C4.5 21.6125 5.60625 24.659 7.81875 28.0895C10.0312 31.5215 13.425 35.3375 18 39.5375ZM18 45.5C11.9625 40.3625 7.4535 35.5903 4.473 31.1833C1.491 26.7778 0 22.7 0 18.95C0 13.325 1.80975 8.84375 5.42925 5.50625C9.04725 2.16875 13.2375 0.5 18 0.5C22.7625 0.5 26.9527 2.16875 30.5707 5.50625C34.1903 8.84375 36 13.325 36 18.95C36 22.7 34.5098 26.7778 31.5293 31.1833C28.5473 35.5903 24.0375 40.3625 18 45.5Z" fill="black"/>
</svg>
