<svg width="52" height="52" viewBox="0 0 52 52" fill="none" xmlns="http://www.w3.org/2000/svg">
<path d="M52 15.1665C52 12.7832 47.6667 8.6665 47.6667 8.6665C47.6667 8.6665 43.3333 12.7832 43.3333 15.1665C43.3333 16.6832 44.2 18.1998 45.5 18.8498V28.1665H41.1667V23.8332C41.1667 21.8832 39.65 20.1498 37.9167 19.7165C38.5667 18.4165 39 17.1165 39 15.3832C39 12.5665 37.7 9.9665 35.3167 8.44984L26 2.1665L16.6833 8.23317C14.5167 9.9665 13 12.5665 13 15.3832C13 16.8998 13.4333 18.4165 14.3 19.7165C12.35 20.1498 10.8333 21.8832 10.8333 23.8332V28.1665H6.5V18.8498C7.8 18.1998 8.66667 16.6832 8.66667 15.1665C8.66667 12.7832 4.33333 8.6665 4.33333 8.6665C4.33333 8.6665 0 12.7832 0 15.1665C0 16.6832 0.866667 18.1998 2.16667 18.8498V45.4998H23.8333V36.8332C23.8333 35.7498 24.7 34.6665 26 34.6665C27.3 34.6665 28.1667 35.7498 28.1667 36.8332V45.4998H49.8333V18.8498C51.1333 18.1998 52 16.6832 52 15.1665ZM19.2833 11.9165L26 7.3665L32.7167 11.9165C34.0167 12.7832 34.6667 13.8665 34.6667 15.3832C34.6667 17.5498 32.7167 19.4998 30.55 19.4998H21.45C19.2833 19.4998 17.3333 17.5498 17.3333 15.3832C17.3333 13.8665 17.9833 12.7832 19.2833 11.9165ZM45.5 41.1665H32.5V36.8332C32.5 33.3665 29.4667 30.3332 26 30.3332C22.5333 30.3332 19.5 33.3665 19.5 36.8332V41.1665H6.5V32.4998H15.1667V23.8332H36.8333V32.4998H45.5V41.1665Z" fill="black"/>
</svg>
